<svg width="512" height="510" viewBox="0 0 512 510" fill="none" xmlns="http://www.w3.org/2000/svg">
<path d="M503.08 446.775H470.968V416.448C470.968 411.521 466.974 407.528 462.048 407.528H451.979V238.053H462.048C466.974 238.053 470.968 234.059 470.968 229.132V198.806H485.238C490.164 198.806 494.158 194.812 494.158 189.886V154.207H503.079C508.005 154.207 511.999 150.213 511.999 145.287V100.687C511.999 96.9488 509.669 93.6079 506.161 92.3163L259.083 1.33464C257.093 0.601994 254.907 0.601994 252.917 1.33464L5.8374 92.3163C2.32997 93.6079 0 96.95 0 100.687V145.287C0 150.213 3.99389 154.207 8.92023 154.207H17.8405V189.886C17.8405 194.812 21.8344 198.806 26.7607 198.806H41.0307V229.132C41.0307 234.059 45.0246 238.053 49.9509 238.053H60.0201V407.528H49.9509C45.0246 407.528 41.0307 411.521 41.0307 416.448V446.775H8.92023C3.99389 446.775 0 450.769 0 455.696V500.294C0 505.221 3.99389 509.215 8.92023 509.215H503.08C508.006 509.215 512 505.221 512 500.294V455.696C512 450.769 508.006 446.775 503.08 446.775ZM453.128 425.368V446.775H363.931V425.368H453.128ZM309.518 407.528H299.449V238.053H309.518C314.444 238.053 318.438 234.059 318.438 229.132V198.806H346.091V229.132C346.091 234.059 350.085 238.053 355.011 238.053H365.08V407.528H355.011C350.085 407.528 346.091 411.521 346.091 416.448V446.775H318.438V416.448C318.438 411.521 314.444 407.528 309.518 407.528ZM156.989 407.528H146.92V238.053H156.989C161.915 238.053 165.909 234.059 165.909 229.132V198.806H193.562V229.132C193.562 234.059 197.556 238.053 202.482 238.053H212.551V407.528H202.482C197.556 407.528 193.562 411.521 193.562 416.448V446.775H165.909V416.448C165.909 411.521 161.915 407.528 156.989 407.528ZM211.401 220.212V198.806H300.599V220.212H211.401ZM281.609 238.053V407.528H230.391V238.053H281.609ZM211.401 425.368H300.599V446.775H211.401V425.368ZM382.922 407.528V238.053H434.139V407.528H382.922ZM453.128 220.212H363.931V198.806H453.128V220.212ZM35.6809 180.966V154.207H66.2773C71.2037 154.207 75.1976 150.213 75.1976 145.287C75.1976 140.361 71.2037 136.367 66.2773 136.367H26.7607H17.8405V106.909L256 19.212L494.16 106.909V136.367H485.239H119.032C114.105 136.367 110.111 140.361 110.111 145.287C110.111 150.213 114.105 154.207 119.032 154.207H476.319V180.966H35.6809ZM58.8724 220.212V198.806H148.069V220.212H58.8724ZM129.078 238.053V407.528H77.8605V238.053H129.078ZM58.8724 425.368H148.069V446.775H58.8724V425.368ZM494.16 491.374H17.8405V464.616H494.16V491.374Z" fill="#FF5E62"/>
</svg>
