<svg width="396" height="371" viewBox="0 0 396 371" fill="none" xmlns="http://www.w3.org/2000/svg">
<path d="M328.759 299.302C331.151 298.067 328.957 294.796 326.646 295.537C322.561 297.078 318.931 299.176 314.846 300.719C310.679 302.754 306.139 303.741 302.054 305.283C299.743 306.023 299.627 310.034 302.393 309.85C312.139 310.468 320.962 303.435 328.759 299.302Z" fill="#FF5E62"/>
<path d="M253.155 328.053C256.657 325.938 260.78 324.219 264.987 322.988C268.122 321.944 267.898 317.45 264.143 318.099C259.851 318.84 255.644 320.071 251.521 321.79C247.934 323.417 243.275 325.229 241.015 328.137C240.196 329.79 240.533 331.744 242.764 331.864C246.688 332.192 249.569 329.681 253.155 328.053Z" fill="#FF5E62"/>
<path d="M206.935 335.535C210.155 334.979 209.395 330.578 206.175 331.134C196.434 332.314 184.295 332.396 174.976 336.021C172.378 336.972 173.138 341.374 175.905 341.398C185.899 341.686 197.363 337.691 206.935 335.535Z" fill="#FF5E62"/>
<path d="M147.421 333.227C142.876 332.502 138.782 331.196 134.69 329.889C130.597 328.582 127.407 326.112 123.032 326.364C120.886 326.735 120.235 329.365 121.024 330.739C123.761 333.791 129.464 334.819 133.473 335.637C138.103 336.851 142.564 337.089 147.109 337.814C149.96 338.328 150.273 333.742 147.421 333.227Z" fill="#FF5E62"/>
<path d="M100.196 315.705C97.0063 313.235 93.2815 310.857 90.0079 307.898C86.7334 304.939 83.8283 300.909 79.2831 300.184C77.5892 299.973 75.6969 301.811 75.9503 303.278C76.626 307.19 81.509 309.871 84.6981 312.341C88.5082 315.208 92.7703 317.493 96.4959 319.87C99.6006 321.851 102.849 318.268 100.196 315.705Z" fill="#FF5E62"/>
<path d="M63.4516 285.295C63.227 280.802 61.9312 276.494 60.6347 272.187C59.3379 267.879 57.787 262.104 53.357 258.842C50.8733 257.257 47.9079 259.28 47.7936 261.816C47.9328 265.821 51.3753 269.758 53.0395 272.995C55.4091 277.117 57.3276 281.821 59.1598 286.037C60.1188 288.389 63.1685 286.855 63.4516 285.295Z" fill="#FF5E62"/>
</svg>
